<svg height="498pt" viewBox="0 -1 498.472 498" width="498pt" xmlns="http://www.w3.org/2000/svg" xmlns:xlink="http://www.w3.org/1999/xlink"><linearGradient id="a" gradientUnits="userSpaceOnUse" x1="249.2344" x2="249.2344" y1="496.236" y2=".236"><stop offset="0" stop-color="#9f2fff"/><stop offset="1" stop-color="#0bb1d3"/></linearGradient><path d="m176 48.234375h-64v-16h64zm32-16h-16v16h16zm-112 0h-16v16h16zm24 432h48v-16h-48zm168-240v48h138.128906l70 40-70 40h-138.128906v104c0 22.058594-17.945312 40-40 40h-208c-22.054688 0-40-17.941406-40-40v-416c0-22.054687 17.945312-40 40-40h208c22.054688 0 40 17.945313 40 40v104h64v16h35.96875c7.808594-18.765625 26.320312-32 47.886719-32 9.410156 0 18.632812 2.554687 26.679687 7.394531l35.9375 21.558594-3.3125 6.625c-.296875.582031-5.734375 11.289062-16.519531 20.925781 12.597656 8.433594 16.703125 20.195313 16.953125 20.960938l2.03125 6.089843-35.089844 21.054688c-8.046875 4.839844-17.277344 7.390625-26.6875 7.390625-21.558594 0-40.078125-13.230469-47.886718-32h-35.960938v16zm112-35.847656c0 19.761719 16.089844 35.847656 35.847656 35.847656 6.503906 0 12.878906-1.765625 18.449219-5.109375l23.023437-13.816406c-4.046874-5.464844-12.671874-13.074219-29.320312-13.074219v-16c5.046875 0 9.585938.511719 13.671875 1.417969 6.878906-4.464844 11.992187-10.359375 15.191406-14.769532l-22.566406-13.535156c-5.5625-3.34375-11.9375-5.113281-18.449219-5.113281-19.757812 0-35.847656 16.089844-35.847656 35.851563zm16 147.847656v-16h-216v16zm-264 0v-48h-40c-4.414062 0-8 3.585937-8 8v32c0 4.417969 3.585938 8 8 8zm16 0h16v-48h-16zm248-48h-216v16h216zm-176-16v-48h-136c-22.054688 0-40-17.941406-40-40 0-22.054687 17.945312-40 40-40h136v-32h-192v272h192v-32h-128c-13.230469 0-24-10.765625-24-24v-32c0-13.230469 10.769531-24 24-24zm64-64v-48h-200c-13.230469 0-24 10.769531-24 24 0 13.234375 10.769531 24 24 24zm48-32v16h32.191406c-.085937-1.277344-.191406-2.550781-.191406-3.847656v-8.292969c0-1.304688.105469-2.578125.191406-3.851562h-32.191406zm-16-16h-16v48h16zm-320-120v24h256v-24c0-13.230469-10.769531-24-24-24h-208c-13.230469 0-24 10.769531-24 24zm256 416v-24h-256v24c0 13.234375 10.769531 24 24 24h208c13.230469 0 24-10.765625 24-24zm0-104h-16v48h-224v-304h224v48h16v-64h-256v336h256zm191.871094-40-31.871094-18.214844v36.433594zm-191.871094-88h-16v48h16zm-168-48c-4.414062 0-8 3.585937-8 8 0 4.417969 3.585938 8 8 8s8-3.582031 8-8c0-4.414063-3.585938-8-8-8zm0 0" fill="url(#a)"/></svg>