<?xml version="1.0"?>
<svg xmlns="http://www.w3.org/2000/svg" xmlns:xlink="http://www.w3.org/1999/xlink" id="Layer_1" data-name="Layer 1" viewBox="0 0 512 512" width="512" height="512"><defs><linearGradient id="linear-gradient" x1="258.251" y1="492.843" x2="258.251" y2="10.829" gradientUnits="userSpaceOnUse"><stop offset="0.322" stop-color="#a163f5"/><stop offset="0.466" stop-color="#b074ee"/><stop offset="0.752" stop-color="#d8a1dd"/><stop offset="0.898" stop-color="#efbad3"/></linearGradient></defs><title>paint brush</title><path d="M459.58,447.179a132.494,132.494,0,0,1-31.064-47.328c-12.127-32.249-4.571-52.145,2.737-71.385,7.212-18.988,14.67-38.621-4.355-63.687-22.5-29.638-55.925-35.479-85.419-40.633-19.286-3.37-37.6-6.591-50.182-16.058a19.768,19.768,0,0,0-1.977-26.909L284.4,176.6a20.929,20.929,0,0,0-22.989-3.515c-4.771-10.135-13.772-28.611-25.5-49.73-23.852-42.959-47.04-75.876-68.919-97.836a7,7,0,0,0-4.958-2.06h0a7,7,0,0,0-4.957,2.058L25.547,157.449a7,7,0,0,0,0,9.882c21.88,21.961,54.683,45.245,97.5,69.2,21.388,11.968,40.053,21.11,50.043,25.842a19.753,19.753,0,0,0,5.041,21.568l4.921,4.58h0a20.67,20.67,0,0,0,14.118,5.491A21,21,0,0,0,207,291.582c8.377,11.14,12.211,28.206,16.562,47.647,8.083,36.131,18.143,81.1,65.651,105.867C371.47,487.987,481.272,490,485.905,490h.1a7,7,0,0,0,4.909-11.989ZM40.471,162.308,161.944,40.459c42.024,45.126,79.311,122.449,88.371,141.963l-68.384,68.642C162.413,241.927,85.393,204.476,40.471,162.308ZM192.586,278.277l-4.922-4.581a5.763,5.763,0,0,1-.4-8.122,6.948,6.948,0,0,0,2.447-2.482l72.6-72.872a6.953,6.953,0,0,0,2.555-2.565l.628-.63a6.884,6.884,0,0,1,9.369-.178l4.922,4.581a5.784,5.784,0,0,1,.159,8.392L201.955,278.1A6.884,6.884,0,0,1,192.586,278.277Zm103.1,154.405c-41.74-21.763-50.624-61.473-58.462-96.509-4.612-20.608-9.014-40.172-19.706-53.856l63.9-64.141c15.281,12.355,35.919,15.963,57.653,19.761,28.272,4.94,57.505,10.048,76.677,35.307,14.333,18.884,9.594,31.362,2.419,50.251-7.459,19.64-16.743,44.081-2.753,81.283a146.572,146.572,0,0,0,34.348,52.379L468,475.105C433.328,472.7,355.682,463.965,295.684,432.682Z" style="fill:url(#linear-gradient)"/></svg>
