<svg id="Layer_5" enable-background="new 0 0 64 64" height="512" viewBox="0 0 64 64" width="512" xmlns="http://www.w3.org/2000/svg" xmlns:xlink="http://www.w3.org/1999/xlink"><linearGradient id="SVGID_1_" gradientUnits="userSpaceOnUse" x1="32" x2="32" y1="63" y2="1"><stop offset="0" stop-color="#9f2fff"/><stop offset="1" stop-color="#0bb1d3"/></linearGradient><path d="m15 27h2v7.917c0 1.148-.935 2.083-2.083 2.083-1.022 0-1.886-.731-2.054-1.74l-.686-4.108c-.029-.176-.326-.175-.355-.001l-.686 4.109c-.167 1.009-1.031 1.74-2.053 1.74-1.148 0-2.083-.935-2.083-2.083v-7.917h2v7.917c-.001.087.149.1.164.015l.686-4.109c.175-1.056 1.08-1.823 2.15-1.823s1.975.767 2.15 1.822l.686 4.108c.015.088.164.074.164-.013zm12 7.917c0 .087-.149.101-.164.014l-.686-4.108c-.175-1.056-1.08-1.823-2.15-1.823s-1.975.767-2.15 1.822l-.686 4.109c-.015.086-.164.073-.164-.014v-7.917h-2v7.917c0 1.148.935 2.083 2.083 2.083 1.022 0 1.886-.731 2.054-1.74l.686-4.109c.029-.174.326-.175.355.001l.686 4.108c.168 1.009 1.031 1.74 2.054 1.74 1.147 0 2.082-.935 2.082-2.083v-7.917h-2zm12 0c0 .087-.149.101-.164.014l-.686-4.108c-.175-1.056-1.08-1.823-2.15-1.823s-1.975.767-2.15 1.822l-.686 4.109c-.015.086-.164.073-.164-.014v-7.917h-2v7.917c0 1.148.935 2.083 2.083 2.083 1.022 0 1.886-.731 2.054-1.74l.686-4.109c.029-.174.326-.175.355.001l.686 4.108c.168 1.009 1.031 1.74 2.054 1.74 1.147 0 2.082-.935 2.082-2.083v-7.917h-2zm-28-29.917h-2v2h2zm-4 0h-2v2h2zm8 0h-2v2h2zm10 20h-20v-12h20zm-2-10h-16v8h16zm6-2h-2v2h2zm2 2h12v-2h-12zm-4 4h16v-2h-16zm0 4h16v-2h-16zm36 15c0 13.785-11.215 25-25 25-11.969 0-22.112-8.365-24.47-20h-9.53c-1.654 0-3-1.346-3-3v-36c0-1.654 1.346-3 3-3h40c1.654 0 3 1.346 3 3v10.695c9.594 3.705 16 12.971 16 23.305zm-16-21.155v3.037c.826 1.522 1.531 3.25 2.114 5.118h7.838c-2.434-3.548-5.854-6.411-9.952-8.155zm.008 34.155h-18.036c2.021 6.049 5.377 10 9.028 10 3.677 0 6.999-4.007 9.008-10zm.603-2c.807-3.011 1.299-6.414 1.377-10h-1.988v1c0 1.654-1.346 3-3 3h-16.719c.231 2.128.603 4.142 1.098 6zm-.611-12h1.974c-.093-4.339-.783-8.5-1.974-12.045zm2.719 12h8.475c1.638-2.994 2.626-6.391 2.781-10h-9.987c-.071 3.596-.516 6.976-1.269 10zm11.242-12c-.156-3.57-1.136-6.975-2.788-10h-8.498c.778 3.097 1.227 6.497 1.299 10zm-57.961-33v5h42v-5c0-.552-.448-1-1-1h-40c-.552 0-1 .448-1 1zm1 37h40c.552 0 1-.448 1-1v-29h-42v29c0 .552.448 1 1 1zm11.574 2c.472 2.137 1.226 4.149 2.228 6h8.511c-.471-1.871-.822-3.881-1.042-6zm16.442 17.214c-2.12-2.095-3.9-5.275-5.137-9.214h-7.867c3.066 4.493 7.663 7.789 13.004 9.214zm24.945-9.214h-7.8c-1.212 3.899-2.963 7.072-5.069 9.175 5.295-1.456 9.832-4.76 12.869-9.175zm-22.961-4h2v-2h-2zm4 0h2v-2h-2zm-8 0h2v-2h-2z" fill="url(#SVGID_1_)"/></svg>