<svg id="Layer_5" enable-background="new 0 0 64 64" height="512" viewBox="0 0 64 64" width="512" xmlns="http://www.w3.org/2000/svg" xmlns:xlink="http://www.w3.org/1999/xlink"><linearGradient id="SVGID_1_" gradientUnits="userSpaceOnUse" x1="32" x2="32" y1="63" y2="1"><stop offset="0" stop-color="#9f2fff"/><stop offset="1" stop-color="#0bb1d3"/></linearGradient><path d="m58 1h-28c-2.757 0-5 2.243-5 5v10.515c-2.189-.989-4.577-1.515-7-1.515-9.374 0-17 7.626-17 17s7.626 17 17 17c2.424 0 4.811-.526 7-1.515v10.515c0 2.757 2.243 5 5 5h28c2.757 0 5-2.243 5-5v-52c0-2.757-2.243-5-5-5zm-28 2h28c1.654 0 3 1.346 3 3v3h-34v-3c0-1.654 1.346-3 3-3zm-12 44c-2.232 0-4.254-2.387-5.546-6h11.092c-1.292 3.613-3.314 6-5.546 6zm6.159-8h-12.318c-.462-1.821-.746-3.858-.816-6h13.951c-.07 2.142-.355 4.179-.817 6zm-21.108-6h5.975c.063 2.139.322 4.16.752 6h-5.035c-.96-1.812-1.549-3.845-1.692-6zm14.949-16c2.232 0 4.254 2.387 5.546 6h-11.092c1.292-3.613 3.314-6 5.546-6zm6.159 8c.462 1.821.746 3.858.816 6h-13.951c.07-2.142.354-4.179.816-6zm-15.133 6h-5.975c.143-2.155.732-4.188 1.693-6h5.034c-.43 1.84-.689 3.861-.752 6zm15.974-9.796c-.548-1.274-1.192-2.391-1.915-3.312.657.236 1.296.52 1.915.847zm-12.098-3.293c-1.038 1.327-1.908 3.066-2.566 5.089h-4.308c1.737-2.304 4.115-4.087 6.874-5.089zm-6.874 23.089h4.308c.658 2.023 1.528 3.762 2.566 5.089-2.759-1.002-5.137-2.785-6.874-5.089zm17.056 5.108c.723-.921 1.368-2.038 1.916-3.312v2.466c-.619.326-1.258.61-1.916.846zm34.916 14.892h-28c-1.654 0-3-1.346-3-3v-2.026c.838.635 1.87 1.026 3 1.026h28c1.13 0 2.162-.391 3-1.026v2.026c0 1.654-1.346 3-3 3zm0-6h-28c-1.654 0-3-1.346-3-3v-41h34v41c0 1.654-1.346 3-3 3zm-9-48h-6v-2h6zm-8 0h-2v-2h2zm-7.414 40h-.586c-1.103 0-2 .897-2 2v2c0 1.103.897 2 2 2h.586c.526 0 1.042-.214 1.414-.586l2.414-2.414-2.414-2.414c-.372-.372-.888-.586-1.414-.586zm0 4h-.586v-2h.586l1 1zm11.414-4h-2c-1.103 0-2 .897-2 2v2c0 1.103.897 2 2 2h2c1.103 0 2-.897 2-2v-2c0-1.103-.897-2-2-2zm-2 4v-2h2l.002 2zm12-4h-.586c-.526 0-1.042.214-1.414.586l-2.414 2.414 2.414 2.414c.372.372.888.586 1.414.586h.586c1.103 0 2-.897 2-2v-2c0-1.103-.897-2-2-2zm-.586 4-1-1 1-1h.586l.002 2zm-25.414-6h30v-32h-30zm2-2v-20h26v20zm26-28v6h-26v-6zm-14 4h-2v-2h2zm-4 0h-2v-2h2zm-4 0h-2v-2h2zm6 6h-8v8h8zm-2 6h-4v-4h4zm8 10h8v-8h-8zm2-6h4v4h-4zm-6-10h12v2h-12zm0 4h12v2h-12zm-10 6h12v2h-12zm0 4h12v2h-12z" fill="url(#SVGID_1_)"/></svg>